<mxfile host="65bd71144e">
    <diagram id="lv7rrA5WIjlr5JLlIv1S" name="Page-1">
        <mxGraphModel dx="1052" dy="718" grid="1" gridSize="10" guides="1" tooltips="1" connect="1" arrows="1" fold="1" page="1" pageScale="1" pageWidth="850" pageHeight="1100" math="0" shadow="0">
            <root>
                <mxCell id="0"/>
                <mxCell id="1" parent="0"/>
                <mxCell id="33" value="&lt;div&gt;&lt;span&gt;&amp;nbsp;计数器&lt;/span&gt;&lt;br&gt;&lt;/div&gt;&lt;div&gt;&lt;span&gt;&amp;nbsp; &amp;nbsp;1. 数据采集&lt;/span&gt;&lt;/div&gt;&lt;div&gt;&lt;span&gt;&amp;nbsp; &amp;nbsp;2. 存储&lt;/span&gt;&lt;/div&gt;&lt;div&gt;&lt;span&gt;&amp;nbsp; &amp;nbsp;3. 聚合统计&lt;/span&gt;&lt;/div&gt;&lt;div&gt;&lt;span&gt;&amp;nbsp; &amp;nbsp;4. 显示&lt;/span&gt;&lt;/div&gt;" style="shape=note;strokeWidth=1;fontSize=14;size=20;whiteSpace=wrap;html=1;fillColor=#fff2cc;strokeColor=#d6b656;align=left;" parent="1" vertex="1">
                    <mxGeometry x="40" y="50" width="110" height="120" as="geometry"/>
                </mxCell>
                <mxCell id="36" value="" style="edgeStyle=orthogonalEdgeStyle;rounded=0;orthogonalLoop=1;jettySize=auto;html=1;" edge="1" parent="1" source="34" target="35">
                    <mxGeometry relative="1" as="geometry"/>
                </mxCell>
                <mxCell id="49" style="edgeStyle=orthogonalEdgeStyle;rounded=0;orthogonalLoop=1;jettySize=auto;html=1;" edge="1" parent="1" source="34" target="45">
                    <mxGeometry relative="1" as="geometry"/>
                </mxCell>
                <mxCell id="34" value="MetricsCollector" style="rounded=1;whiteSpace=wrap;html=1;strokeWidth=1;fillColor=#d5e8d4;strokeColor=#82b366;" vertex="1" parent="1">
                    <mxGeometry x="290" y="120" width="120" height="60" as="geometry"/>
                </mxCell>
                <mxCell id="35" value="数据采集" style="rounded=1;whiteSpace=wrap;html=1;strokeWidth=1;" vertex="1" parent="1">
                    <mxGeometry x="490" y="120" width="160" height="60" as="geometry"/>
                </mxCell>
                <mxCell id="40" value="" style="edgeStyle=orthogonalEdgeStyle;rounded=0;orthogonalLoop=1;jettySize=auto;html=1;" edge="1" parent="1" source="37" target="39">
                    <mxGeometry relative="1" as="geometry"/>
                </mxCell>
                <mxCell id="42" value="" style="edgeStyle=orthogonalEdgeStyle;rounded=0;orthogonalLoop=1;jettySize=auto;html=1;exitX=0.5;exitY=1;exitDx=0;exitDy=0;" edge="1" parent="1" source="45" target="41">
                    <mxGeometry relative="1" as="geometry"/>
                </mxCell>
                <mxCell id="37" value="MetricsStorage" style="rounded=1;whiteSpace=wrap;html=1;strokeWidth=1;fillColor=#d5e8d4;strokeColor=#82b366;" vertex="1" parent="1">
                    <mxGeometry x="210" y="360" width="120" height="60" as="geometry"/>
                </mxCell>
                <mxCell id="39" value="数据存储" style="rounded=1;whiteSpace=wrap;html=1;strokeWidth=1;" vertex="1" parent="1">
                    <mxGeometry x="210" y="470" width="120" height="60" as="geometry"/>
                </mxCell>
                <mxCell id="44" value="" style="edgeStyle=orthogonalEdgeStyle;rounded=0;orthogonalLoop=1;jettySize=auto;html=1;" edge="1" parent="1" source="41" target="43">
                    <mxGeometry relative="1" as="geometry"/>
                </mxCell>
                <mxCell id="41" value="Aggregator" style="rounded=1;whiteSpace=wrap;html=1;strokeWidth=1;fillColor=#d5e8d4;strokeColor=#82b366;" vertex="1" parent="1">
                    <mxGeometry x="380" y="360" width="120" height="60" as="geometry"/>
                </mxCell>
                <mxCell id="43" value="根据数计算统计&lt;br&gt;&lt;font color=&quot;#ff0000&quot;&gt;逻辑复杂 &amp;amp; 耦合&lt;/font&gt;" style="rounded=1;whiteSpace=wrap;html=1;strokeWidth=1;" vertex="1" parent="1">
                    <mxGeometry x="380" y="470" width="120" height="60" as="geometry"/>
                </mxCell>
                <mxCell id="48" value="" style="edgeStyle=orthogonalEdgeStyle;rounded=0;orthogonalLoop=1;jettySize=auto;html=1;" edge="1" parent="1" source="45" target="47">
                    <mxGeometry relative="1" as="geometry"/>
                </mxCell>
                <mxCell id="50" style="edgeStyle=orthogonalEdgeStyle;rounded=0;orthogonalLoop=1;jettySize=auto;html=1;exitX=0.5;exitY=1;exitDx=0;exitDy=0;" edge="1" parent="1" source="45" target="37">
                    <mxGeometry relative="1" as="geometry"/>
                </mxCell>
                <mxCell id="45" value="ConsoleReporter" style="rounded=1;whiteSpace=wrap;html=1;strokeWidth=1;fillColor=#d5e8d4;strokeColor=#82b366;" vertex="1" parent="1">
                    <mxGeometry x="290" y="230" width="120" height="60" as="geometry"/>
                </mxCell>
                <mxCell id="47" value="查询数据,计算统计信息&lt;br&gt;&lt;font color=&quot;#ff0000&quot;&gt;做的太多{view/logic} &amp;amp; DRY&lt;/font&gt;" style="rounded=1;whiteSpace=wrap;html=1;strokeWidth=1;" vertex="1" parent="1">
                    <mxGeometry x="490" y="230" width="160" height="60" as="geometry"/>
                </mxCell>
                <mxCell id="51" value="" style="edgeStyle=orthogonalEdgeStyle;rounded=0;orthogonalLoop=1;jettySize=auto;html=1;" edge="1" parent="1" source="53" target="54">
                    <mxGeometry relative="1" as="geometry"/>
                </mxCell>
                <mxCell id="76" value="" style="edgeStyle=orthogonalEdgeStyle;rounded=0;orthogonalLoop=1;jettySize=auto;html=1;" edge="1" parent="1" source="53" target="74">
                    <mxGeometry relative="1" as="geometry"/>
                </mxCell>
                <mxCell id="53" value="MetricsCollector" style="rounded=1;whiteSpace=wrap;html=1;strokeWidth=1;fillColor=#d5e8d4;strokeColor=#82b366;" vertex="1" parent="1">
                    <mxGeometry x="255" y="670" width="120" height="60" as="geometry"/>
                </mxCell>
                <mxCell id="54" value="数据采集" style="rounded=1;whiteSpace=wrap;html=1;strokeWidth=1;" vertex="1" parent="1">
                    <mxGeometry x="455" y="670" width="160" height="60" as="geometry"/>
                </mxCell>
                <mxCell id="55" value="" style="edgeStyle=orthogonalEdgeStyle;rounded=0;orthogonalLoop=1;jettySize=auto;html=1;" edge="1" parent="1" source="57" target="58">
                    <mxGeometry relative="1" as="geometry"/>
                </mxCell>
                <mxCell id="56" value="" style="edgeStyle=orthogonalEdgeStyle;rounded=0;orthogonalLoop=1;jettySize=auto;html=1;exitX=0.5;exitY=1;exitDx=0;exitDy=0;" edge="1" parent="1" source="74" target="60">
                    <mxGeometry relative="1" as="geometry"/>
                </mxCell>
                <mxCell id="57" value="MetricsStorage" style="rounded=1;whiteSpace=wrap;html=1;strokeWidth=1;fillColor=#d5e8d4;strokeColor=#82b366;" vertex="1" parent="1">
                    <mxGeometry x="85" y="910" width="120" height="60" as="geometry"/>
                </mxCell>
                <mxCell id="58" value="数据存储" style="rounded=1;whiteSpace=wrap;html=1;strokeWidth=1;" vertex="1" parent="1">
                    <mxGeometry x="85" y="1020" width="120" height="60" as="geometry"/>
                </mxCell>
                <mxCell id="59" value="" style="edgeStyle=orthogonalEdgeStyle;rounded=0;orthogonalLoop=1;jettySize=auto;html=1;" edge="1" parent="1" source="60" target="61">
                    <mxGeometry relative="1" as="geometry"/>
                </mxCell>
                <mxCell id="60" value="Aggregator" style="rounded=1;whiteSpace=wrap;html=1;strokeWidth=1;fillColor=#d5e8d4;strokeColor=#82b366;" vertex="1" parent="1">
                    <mxGeometry x="255" y="910" width="120" height="60" as="geometry"/>
                </mxCell>
                <mxCell id="61" value="根据数据统计信息&lt;br&gt;&lt;font color=&quot;#cc0066&quot;&gt;逻辑方法&lt;/font&gt;" style="rounded=1;whiteSpace=wrap;html=1;strokeWidth=1;" vertex="1" parent="1">
                    <mxGeometry x="255" y="1020" width="120" height="60" as="geometry"/>
                </mxCell>
                <mxCell id="62" value="" style="edgeStyle=orthogonalEdgeStyle;rounded=0;orthogonalLoop=1;jettySize=auto;html=1;" edge="1" parent="1" source="64" target="65">
                    <mxGeometry relative="1" as="geometry"/>
                </mxCell>
                <mxCell id="63" style="edgeStyle=orthogonalEdgeStyle;rounded=0;orthogonalLoop=1;jettySize=auto;html=1;exitX=0.5;exitY=1;exitDx=0;exitDy=0;" edge="1" parent="1" source="74" target="57">
                    <mxGeometry relative="1" as="geometry"/>
                </mxCell>
                <mxCell id="69" style="edgeStyle=orthogonalEdgeStyle;rounded=0;orthogonalLoop=1;jettySize=auto;html=1;exitX=0.5;exitY=1;exitDx=0;exitDy=0;" edge="1" parent="1" source="74" target="68">
                    <mxGeometry relative="1" as="geometry"/>
                </mxCell>
                <mxCell id="64" value="ConsoleReporter" style="rounded=1;whiteSpace=wrap;html=1;strokeWidth=1;fillColor=#f8cecc;strokeColor=#b85450;" vertex="1" parent="1">
                    <mxGeometry x="455" y="770" width="120" height="60" as="geometry"/>
                </mxCell>
                <mxCell id="65" value="查询数据,计算统计信息" style="rounded=1;whiteSpace=wrap;html=1;strokeWidth=1;" vertex="1" parent="1">
                    <mxGeometry x="650" y="770" width="160" height="60" as="geometry"/>
                </mxCell>
                <mxCell id="66" value="&lt;font style=&quot;font-size: 16px&quot;&gt;refactor v1&lt;/font&gt;" style="shape=singleArrow;whiteSpace=wrap;html=1;strokeWidth=1;arrowWidth=0.3333333333333333;arrowSize=0.1;fillColor=#6d8764;strokeColor=#3A5431;fontColor=#ffffff;" vertex="1" parent="1">
                    <mxGeometry x="30" y="560" width="770" height="100" as="geometry"/>
                </mxCell>
                <mxCell id="73" value="" style="edgeStyle=orthogonalEdgeStyle;rounded=0;orthogonalLoop=1;jettySize=auto;html=1;" edge="1" parent="1" source="68" target="72">
                    <mxGeometry relative="1" as="geometry"/>
                </mxCell>
                <mxCell id="68" value="ConsoleViewer" style="rounded=1;whiteSpace=wrap;html=1;strokeWidth=1;fillColor=#f8cecc;strokeColor=#b85450;" vertex="1" parent="1">
                    <mxGeometry x="415" y="910" width="120" height="60" as="geometry"/>
                </mxCell>
                <mxCell id="71" value="" style="edgeStyle=orthogonalEdgeStyle;rounded=0;orthogonalLoop=1;jettySize=auto;html=1;" edge="1" parent="1" source="70" target="68">
                    <mxGeometry relative="1" as="geometry"/>
                </mxCell>
                <mxCell id="70" value="IViewer" style="rounded=1;whiteSpace=wrap;html=1;strokeWidth=1;fillColor=#f8cecc;strokeColor=#b85450;" vertex="1" parent="1">
                    <mxGeometry x="415" y="1020" width="120" height="60" as="geometry"/>
                </mxCell>
                <mxCell id="72" value="构建制定格式的输出" style="rounded=1;whiteSpace=wrap;html=1;strokeWidth=1;" vertex="1" parent="1">
                    <mxGeometry x="610" y="910" width="120" height="60" as="geometry"/>
                </mxCell>
                <mxCell id="75" value="" style="edgeStyle=orthogonalEdgeStyle;rounded=0;orthogonalLoop=1;jettySize=auto;html=1;" edge="1" parent="1" source="74" target="64">
                    <mxGeometry relative="1" as="geometry"/>
                </mxCell>
                <mxCell id="78" value="" style="edgeStyle=orthogonalEdgeStyle;rounded=0;orthogonalLoop=1;jettySize=auto;html=1;" edge="1" parent="1" source="74" target="77">
                    <mxGeometry relative="1" as="geometry"/>
                </mxCell>
                <mxCell id="74" value="ScheduledReporter" style="rounded=1;whiteSpace=wrap;html=1;strokeWidth=1;fillColor=#d5e8d4;strokeColor=#82b366;" vertex="1" parent="1">
                    <mxGeometry x="255" y="770" width="120" height="60" as="geometry"/>
                </mxCell>
                <mxCell id="77" value="&lt;font color=&quot;#cc0066&quot;&gt;抽象 &amp;amp; 重复逻辑&lt;/font&gt;" style="rounded=1;whiteSpace=wrap;html=1;strokeWidth=1;" vertex="1" parent="1">
                    <mxGeometry x="55" y="770" width="120" height="60" as="geometry"/>
                </mxCell>
            </root>
        </mxGraphModel>
    </diagram>
</mxfile>
